<svg width="24" height="24" viewBox="0 0 24 24" fill="none" xmlns="http://www.w3.org/2000/svg">
    <path fill-rule="evenodd" clip-rule="evenodd"
        d="M18.5 9C20.433 9 22 7.433 22 5.5C22 3.567 20.433 2 18.5 2C16.567 2 15 3.567 15 5.5C15 6.0368 15.1208 6.54537 15.3368 7H8V9H13.5859L7.1652 15.4207C6.67 15.1524 6.1028 15 5.5 15C3.567 15 2 16.567 2 18.5C2 20.433 3.567 22 5.5 22C7.433 22 9 20.433 9 18.5C9 17.8973 8.84765 17.3301 8.57936 16.835L15 10.4144V16H17V8.66318C17.4546 8.87915 17.9632 9 18.5 9ZM18.5 7C19.3284 7 20 6.32843 20 5.5C20 4.67157 19.3284 4 18.5 4C17.6716 4 17 4.67157 17 5.5C17 6.32843 17.6716 7 18.5 7ZM5.5 20C6.32843 20 7 19.3284 7 18.5C7 17.6716 6.32843 17 5.5 17C4.67157 17 4 17.6716 4 18.5C4 19.3284 4.67157 20 5.5 20Z"
        fill="currentColor"></path>
</svg>