<svg width="24" height="24" viewBox="0 0 24 24" fill="none" xmlns="http://www.w3.org/2000/svg">
    <path fill-rule="evenodd" clip-rule="evenodd"
        d="M11 2H13V8.12602C14.4056 8.4878 15.5122 9.59439 15.874 11H22V13H15.874C15.5122 14.4056 14.4056 15.5122 13 15.874V22H11V15.874C9.59439 15.5122 8.4878 14.4056 8.12602 13H2V11H8.12602C8.4878 9.59439 9.59439 8.4878 11 8.12602V2ZM14 12C14 13.1046 13.1046 14 12 14C10.8954 14 10 13.1046 10 12C10 10.8954 10.8954 10 12 10C13.1046 10 14 10.8954 14 12Z"
        fill="currentColor"></path>
</svg>