<svg width="25" height="24" viewBox="0 0 25 24" fill="none" xmlns="http://www.w3.org/2000/svg">
    <path fill-rule="evenodd" clip-rule="evenodd"
        d="M19.5794 5.835L22.2072 3.20718L20.793 1.79297L18.1652 4.42074C17.67 4.15239 17.1028 4 16.5 4C14.567 4 13 5.567 13 7.5C13 8.1028 13.1524 8.67 13.4207 9.1652L9.1652 13.4207C8.67 13.1524 8.1028 13 7.5 13C5.567 13 4 14.567 4 16.5C4 17.1028 4.15239 17.67 4.42074 18.1652L1.79297 20.793L3.20718 22.2072L5.835 19.5794C6.33015 19.8477 6.89728 20 7.5 20C9.433 20 11 18.433 11 16.5C11 15.8973 10.8477 15.3301 10.5794 14.835L14.835 10.5794C15.3301 10.8477 15.8973 11 16.5 11C18.433 11 20 9.433 20 7.5C20 6.89728 19.8477 6.33015 19.5794 5.835ZM16.5 9C17.3284 9 18 8.32843 18 7.5C18 6.67157 17.3284 6 16.5 6C15.6716 6 15 6.67157 15 7.5C15 8.32843 15.6716 9 16.5 9ZM7.5 18C8.32843 18 9 17.3284 9 16.5C9 15.6716 8.32843 15 7.5 15C6.67157 15 6 15.6716 6 16.5C6 17.3284 6.67157 18 7.5 18Z"
        fill="currentColor"></path>
</svg>