<svg xmlns="http://www.w3.org/2000/svg" viewBox="0 0 28 28" width="28" height="28">
    <g fill="currentColor" fill-rule="nonzero">
        <path
            d="M4 2v19.5h1v-19.5zM15.5 10h-11v1h11zM17 12.5v11h1v-11zM6.29 22.417l10.162-10.162-.707-.707-10.162 10.162z"
            id="Line"></path>
        <path d="M19.264 9.443l6.589-6.589-.707-.707-6.589 6.589z"></path>
        <path d="M6.577 23.381l19.071-5.903-.296-.955-19.071 5.903z"></path>
        <path d="M5.573 21.724l5.905-19.076-.955-.296-5.905 19.076z"></path>
        <path d="M6.5 24h19.5v-1h-19.5z"></path>
        <path
            d="M4.5 25c.828 0 1.5-.672 1.5-1.5s-.672-1.5-1.5-1.5-1.5.672-1.5 1.5.672 1.5 1.5 1.5zm0 1c-1.381 0-2.5-1.119-2.5-2.5s1.119-2.5 2.5-2.5 2.5 1.119 2.5 2.5-1.119 2.5-2.5 2.5zM17.5 12c.828 0 1.5-.672 1.5-1.5s-.672-1.5-1.5-1.5-1.5.672-1.5 1.5.672 1.5 1.5 1.5zm0 1c-1.381 0-2.5-1.119-2.5-2.5s1.119-2.5 2.5-2.5 2.5 1.119 2.5 2.5-1.119 2.5-2.5 2.5z">
        </path>
    </g>
</svg>