<svg width="25" height="25" viewBox="0 0 25 25" fill="none" xmlns="http://www.w3.org/2000/svg">
    <path fill-rule="evenodd" clip-rule="evenodd"
        d="M7.5 4.25H16.1449C16.5752 2.80425 17.9145 1.75 19.5 1.75C21.433 1.75 23 3.317 23 5.25C23 7.183 21.433 8.75 19.5 8.75C17.9145 8.75 16.5752 7.69574 16.1449 6.25H7.5V4.25ZM18 5.25C18 4.42157 18.6716 3.75 19.5 3.75C20.3284 3.75 21 4.42157 21 5.25C21 6.07843 20.3284 6.75 19.5 6.75C18.6716 6.75 18 6.07843 18 5.25Z"
        fill="currentColor"></path>
    <path fill-rule="evenodd" clip-rule="evenodd"
        d="M16.5 19.75H7.85506C7.42479 21.1957 6.08551 22.25 4.5 22.25C2.567 22.25 1 20.683 1 18.75C1 16.817 2.567 15.25 4.5 15.25C6.08551 15.25 7.42479 16.3043 7.85506 17.75H16.5V19.75ZM6 18.75C6 19.5784 5.32843 20.25 4.5 20.25C3.67157 20.25 3 19.5784 3 18.75C3 17.9216 3.67157 17.25 4.5 17.25C5.32843 17.25 6 17.9216 6 18.75Z"
        fill="currentColor"></path>
    <path d="M16.5 10.75H7.5V8.75H16.5V10.75Z" fill="currentColor"></path>
    <path d="M16.5 15.25H7.5V13.25H16.5V15.25Z" fill="currentColor"></path>
</svg>