<svg width="20" height="6" viewBox="0 0 20 6" fill="none" xmlns="http://www.w3.org/2000/svg">
    <path fill-rule="evenodd" clip-rule="evenodd"
        d="M4 3C4 3.55228 3.55228 4 3 4C2.44772 4 2 3.55228 2 3C2 2.44772 2.44772 2 3 2C3.55228 2 4 2.44772 4 3ZM5.82929 4C5.41746 5.16519 4.30622 6 3 6C1.34315 6 0 4.65685 0 3C0 1.34315 1.34315 0 3 0C4.30622 0 5.41746 0.834808 5.82929 2H14.1707C14.5825 0.834808 15.6938 0 17 0C18.6569 0 20 1.34315 20 3C20 4.65685 18.6569 6 17 6C15.6938 6 14.5825 5.16519 14.1707 4H5.82929ZM17 4C17.5523 4 18 3.55228 18 3C18 2.44772 17.5523 2 17 2C16.4477 2 16 2.44772 16 3C16 3.55228 16.4477 4 17 4Z"
        fill="currentColor"></path>
</svg>