<svg width="24" height="24" viewBox="0 0 24 24" fill="none" xmlns="http://www.w3.org/2000/svg">
    <path fill-rule="evenodd" clip-rule="evenodd"
        d="M18 5.5C18 7.433 16.433 9 14.5 9C13.8973 9 13.3301 8.84765 12.835 8.57936L8.57936 12.835C8.84765 13.3301 9 13.8973 9 14.5C9 16.433 7.433 18 5.5 18C3.567 18 2 16.433 2 14.5C2 12.567 3.567 11 5.5 11C6.1028 11 6.67 11.1524 7.1652 11.4207L11.4207 7.1652C11.1524 6.67 11 6.1028 11 5.5C11 3.567 12.567 2 14.5 2C16.433 2 18 3.567 18 5.5ZM16 5.5C16 6.32843 15.3284 7 14.5 7C13.6716 7 13 6.32843 13 5.5C13 4.67157 13.6716 4 14.5 4C15.3284 4 16 4.67157 16 5.5ZM7 14.5C7 15.3284 6.32843 16 5.5 16C4.67157 16 4 15.3284 4 14.5C4 13.6716 4.67157 13 5.5 13C6.32843 13 7 13.6716 7 14.5Z"
        fill="currentColor"></path>
    <path fill-rule="evenodd" clip-rule="evenodd"
        d="M15.5 19C17.433 19 19 17.433 19 15.5C19 14.8973 18.8477 14.3301 18.5794 13.835L22.7072 9.70718L21.293 8.29297L17.1652 12.4207C16.67 12.1524 16.1028 12 15.5 12C13.567 12 12 13.567 12 15.5C12 16.1027 12.1523 16.6699 12.4206 17.165L8.29282 21.2928L9.70703 22.707L13.8348 18.5793C14.33 18.8476 14.8972 19 15.5 19ZM15.5 17C16.3284 17 17 16.3284 17 15.5C17 14.6716 16.3284 14 15.5 14C14.6716 14 14 14.6716 14 15.5C14 16.3284 14.6716 17 15.5 17Z"
        fill="currentColor"></path>
</svg>