<svg width="24" height="24" viewBox="0 0 24 24" fill="none" xmlns="http://www.w3.org/2000/svg">
    <path
        d="M12.4817 12.5007C12.4254 12.5007 12.3878 12.4631 12.3878 12.4067V11.1479C12.3878 11.0916 12.3972 11.0634 12.4348 11.0164L14.6799 8.6773C14.9148 8.43306 14.9993 8.23578 14.9993 7.99154C14.9993 7.68153 14.8396 7.50305 14.5672 7.50305C14.2948 7.50305 14.0975 7.66275 14.0599 8.17002C14.0599 8.22639 14.0224 8.26397 13.9566 8.25457L12.4817 8.0573C12.4254 8.0479 12.3972 8.01033 12.3972 7.95396C12.4442 6.77031 13.4023 6 14.6611 6C15.9199 6 16.8218 6.79849 16.8218 7.90699C16.8218 8.62094 16.5306 9.11882 16.0609 9.59792L14.7457 10.9413V10.9601H16.7278C16.7842 10.9601 16.8218 10.9976 16.8218 11.054V12.4067C16.8218 12.4631 16.7842 12.5007 16.7278 12.5007H12.4817Z"
        fill="currentColor"></path>
    <path
        d="M9.18598 12.5007C9.12962 12.5007 9.09204 12.4631 9.09204 12.4067V8.08548H9.07326L7.93658 8.82761C7.88021 8.86518 7.81445 8.8464 7.81445 8.77124V7.14607C7.81445 7.08971 7.83324 7.05213 7.88021 7.01456L9.10144 6.16909C9.1578 6.13152 9.21417 6.11273 9.27992 6.11273H10.8769C10.9333 6.11273 10.9709 6.1503 10.9709 6.20667V12.4067C10.9709 12.4631 10.9333 12.5007 10.8769 12.5007H9.18598Z"
        fill="currentColor"></path>
    <path
        d="M17.7171 10.9131C17.8487 11.937 18.7035 12.6134 20.0093 12.6134C21.3714 12.6134 22.2733 11.7867 22.2733 10.6219C22.2733 9.76701 21.8881 9.33489 21.4466 9.09064V9.07185C21.8881 8.78064 22.1699 8.33912 22.1699 7.76608C22.1699 6.77971 21.3808 6 19.9999 6C18.6753 6 17.9144 6.70455 17.7453 7.70972C17.7359 7.76608 17.7641 7.80366 17.8205 7.81305L19.3141 8.01033C19.3705 8.01972 19.4081 7.98214 19.4175 7.93517C19.4738 7.67214 19.6241 7.50305 19.8872 7.50305C20.1596 7.50305 20.3475 7.68153 20.3475 7.99154C20.3475 8.31094 20.1596 8.49882 19.8402 8.49882H19.6054C19.549 8.49882 19.5114 8.53639 19.5114 8.59276V9.87974C19.5114 9.93611 19.549 9.97368 19.6054 9.97368H19.859C20.2254 9.97368 20.4508 10.171 20.4508 10.5467C20.4508 10.9131 20.2535 11.1104 19.9435 11.1104C19.6523 11.1104 19.4644 10.9413 19.3987 10.6782C19.3893 10.6219 19.3517 10.5843 19.286 10.5937L17.7923 10.8004C17.7359 10.8098 17.7078 10.8567 17.7171 10.9131Z"
        fill="currentColor"></path>
    <path fill-rule="evenodd" clip-rule="evenodd"
        d="M1.5 15.5C1.5 13.567 3.067 12 5 12C6.58551 12 7.92479 13.0543 8.35506 14.5H22V16.5H8.35506C7.92479 17.9457 6.58551 19 5 19C3.067 19 1.5 17.433 1.5 15.5ZM5 14C4.17157 14 3.5 14.6716 3.5 15.5C3.5 16.3284 4.17157 17 5 17C5.82843 17 6.5 16.3284 6.5 15.5C6.5 14.6716 5.82843 14 5 14Z"
        fill="currentColor"></path>
</svg>