<svg width="24" height="24" viewBox="0 0 24 24" fill="none" xmlns="http://www.w3.org/2000/svg">
    <path fill-rule="evenodd" clip-rule="evenodd"
        d="M17.5794 7.835C17.8477 8.33014 18 8.89728 18 9.5C18 11.433 16.433 13 14.5 13C13.8973 13 13.3301 12.8477 12.835 12.5794L8.57936 16.835C8.84765 17.3301 9 17.8973 9 18.5C9 20.433 7.433 22 5.5 22C3.567 22 2 20.433 2 18.5C2 16.567 3.567 15 5.5 15C6.1028 15 6.67 15.1524 7.1652 15.4207L11.4207 11.1652C11.1524 10.67 11 10.1028 11 9.5C11 7.567 12.567 6 14.5 6C15.1028 6 15.67 6.15239 16.1652 6.42074L20.793 1.79297L22.2072 3.20718L17.5794 7.835ZM16 9.5C16 10.3284 15.3284 11 14.5 11C13.6716 11 13 10.3284 13 9.5C13 8.67157 13.6716 8 14.5 8C15.3284 8 16 8.67157 16 9.5ZM7 18.5C7 19.3284 6.32843 20 5.5 20C4.67157 20 4 19.3284 4 18.5C4 17.6716 4.67157 17 5.5 17C6.32843 17 7 17.6716 7 18.5Z"
        fill="currentColor"></path>
</svg>