<svg width="25" height="24" viewBox="0 0 25 24" fill="none" xmlns="http://www.w3.org/2000/svg">
    <path fill-rule="evenodd" clip-rule="evenodd"
        d="M8.85506 4.5C8.42479 3.05426 7.08551 2 5.5 2C3.567 2 2 3.567 2 5.5C2 7.08551 3.05426 8.42479 4.5 8.85506V15.1449C3.05426 15.5752 2 16.9145 2 18.5C2 20.433 3.567 22 5.5 22C7.08551 22 8.42479 20.9457 8.85506 19.5H15.1449C15.5752 20.9457 16.9145 22 18.5 22C20.433 22 22 20.433 22 18.5C22 16.9145 20.9457 15.5752 19.5 15.1449V8.85506C20.9457 8.42479 22 7.08551 22 5.5C22 3.567 20.433 2 18.5 2C16.9145 2 15.5752 3.05426 15.1449 4.5L8.85506 4.5ZM5.5 4C6.32843 4 7 4.67157 7 5.5C7 6.32843 6.32843 7 5.5 7C4.67157 7 4 6.32843 4 5.5C4 4.67157 4.67157 4 5.5 4ZM15.1449 6.5L8.85506 6.5C8.51909 7.62889 7.62889 8.51909 6.5 8.85506V15.1449C7.62889 15.4809 8.51909 16.3711 8.85506 17.5H15.1449C15.4809 16.3711 16.3711 15.4809 17.5 15.1449V8.85506C16.3711 8.51909 15.4809 7.62889 15.1449 6.5ZM5.5 17C6.32843 17 7 17.6716 7 18.5C7 19.3284 6.32843 20 5.5 20C4.67157 20 4 19.3284 4 18.5C4 17.6716 4.67157 17 5.5 17ZM20 5.5C20 4.67157 19.3284 4 18.5 4C17.6716 4 17 4.67157 17 5.5C17 6.32843 17.6716 7 18.5 7C19.3284 7 20 6.32843 20 5.5ZM18.5 17C19.3284 17 20 17.6716 20 18.5C20 19.3284 19.3284 20 18.5 20C17.6716 20 17 19.3284 17 18.5C17 17.6716 17.6716 17 18.5 17Z"
        fill="currentColor"></path>
</svg>