<svg xmlns="http://www.w3.org/2000/svg" viewBox="0 0 28 28" width="28" height="28">
    <g fill="currentColor" fill-rule="nonzero">
        <path d="M15.5 22.5c0-2.697-1.073-5.225-2.947-7.089l-.705.709c1.687 1.679 2.652 3.952 2.652 6.38h1z"></path>
        <path d="M7.354 21.354l14-14-.707-.707-14 14z"></path>
        <path d="M7.5 23h16.5v-1h-16.5z"></path>
        <path
            d="M22.5 7c.828 0 1.5-.672 1.5-1.5s-.672-1.5-1.5-1.5-1.5.672-1.5 1.5.672 1.5 1.5 1.5zm0 1c-1.381 0-2.5-1.119-2.5-2.5s1.119-2.5 2.5-2.5 2.5 1.119 2.5 2.5-1.119 2.5-2.5 2.5zM5.5 24c.828 0 1.5-.672 1.5-1.5s-.672-1.5-1.5-1.5-1.5.672-1.5 1.5.672 1.5 1.5 1.5zm0 1c-1.381 0-2.5-1.119-2.5-2.5s1.119-2.5 2.5-2.5 2.5 1.119 2.5 2.5-1.119 2.5-2.5 2.5z">
        </path>
    </g>
</svg>