<svg width="25" height="24" viewBox="0 0 25 24" fill="none" xmlns="http://www.w3.org/2000/svg">
    <path fill-rule="evenodd" clip-rule="evenodd"
        d="M11 8.12602C9.27477 8.57006 8 10.1362 8 12C8 13.8638 9.27477 15.4299 11 15.874L11 22L13 22L13 15.874C14.7252 15.4299 16 13.8638 16 12C16 10.1362 14.7252 8.57006 13 8.12602L13 2L11 2L11 8.12602ZM12 10C10.8954 10 10 10.8954 10 12C10 13.1046 10.8954 14 12 14C13.1046 14 14 13.1046 14 12C14 10.8954 13.1046 10 12 10Z"
        fill="currentColor"></path>
</svg>